<svg width="21" height="18" viewBox="0 0 21 18" fill="none" xmlns="http://www.w3.org/2000/svg">
<path d="M18.9 12.725V6.825L10.85 11.2C10.55 11.3667 10.2333 11.45 9.9 11.45C9.56667 11.45 9.25 11.3667 8.95 11.2L0.5 6.6C0.316667 6.5 0.1875 6.375 0.1125 6.225C0.0375 6.075 0 5.90833 0 5.725C0 5.54167 0.0375 5.375 0.1125 5.225C0.1875 5.075 0.316667 4.95 0.5 4.85L8.95 0.25C9.1 0.166667 9.25417 0.104167 9.4125 0.0625C9.57083 0.0208333 9.73333 0 9.9 0C10.0667 0 10.2292 0.0208333 10.3875 0.0625C10.5458 0.104167 10.7 0.166667 10.85 0.25L20.375 5.45C20.5417 5.53333 20.6708 5.65417 20.7625 5.8125C20.8542 5.97083 20.9 6.14167 20.9 6.325V12.725C20.9 13.0083 20.8042 13.2458 20.6125 13.4375C20.4208 13.6292 20.1833 13.725 19.9 13.725C19.6167 13.725 19.3792 13.6292 19.1875 13.4375C18.9958 13.2458 18.9 13.0083 18.9 12.725ZM8.95 17.2L3.95 14.5C3.61667 14.3167 3.35833 14.0667 3.175 13.75C2.99167 13.4333 2.9 13.0917 2.9 12.725V8.925L8.95 12.2C9.25 12.3667 9.56667 12.45 9.9 12.45C10.2333 12.45 10.55 12.3667 10.85 12.2L16.9 8.925V12.725C16.9 13.0917 16.8083 13.4333 16.625 13.75C16.4417 14.0667 16.1833 14.3167 15.85 14.5L10.85 17.2C10.7 17.2833 10.5458 17.3458 10.3875 17.3875C10.2292 17.4292 10.0667 17.45 9.9 17.45C9.73333 17.45 9.57083 17.4292 9.4125 17.3875C9.25417 17.3458 9.1 17.2833 8.95 17.2Z" fill="#6557E3"/>
</svg>
