<svg width="40" height="39" viewBox="0 0 40 39" fill="none" xmlns="http://www.w3.org/2000/svg">
<path d="M20 0L15.56 2.75694L10.3517 3.13442L8.37897 7.97421L4.38492 11.3428L5.63492 16.4167L4.38492 21.4911L8.37897 24.8596L10.3517 29.6994L15.56 30.0769L20 32.8338L24.44 30.0769L29.6483 29.6994L31.621 24.8596L35.6151 21.4911L34.3651 16.4167L35.6151 11.3428L31.621 7.97421L29.6483 3.13442L24.44 2.75694L20 0ZM20 6.41815C25.5149 6.41815 30 10.9028 30 16.4167C30 21.931 25.5149 26.4152 20 26.4152C14.4851 26.4152 10 21.931 10 16.4167C10 10.9028 14.4851 6.41815 20 6.41815ZM20 8.08482C19.8636 8.08482 19.7272 8.08829 19.5913 8.09474C19.4549 8.10169 19.3189 8.11161 19.183 8.125C19.0476 8.13839 18.9122 8.15476 18.7773 8.1751C18.6424 8.19494 18.5079 8.21825 18.3745 8.24504C18.2406 8.27133 18.1076 8.30159 17.9752 8.33432C17.8428 8.36756 17.7113 8.40377 17.5809 8.44345C17.4504 8.48313 17.3209 8.52579 17.1925 8.57192C17.064 8.61806 16.937 8.66667 16.811 8.71925C16.685 8.77133 16.5605 8.82639 16.437 8.88492C16.314 8.94296 16.192 9.00446 16.0719 9.06845C15.9514 9.13294 15.8328 9.1999 15.7158 9.27034C15.5987 9.34028 15.4836 9.41319 15.3705 9.48909C15.2569 9.56498 15.1453 9.64335 15.0357 9.7247C14.9266 9.80556 14.8189 9.88938 14.7133 9.97619C14.6081 10.0625 14.505 10.1518 14.4038 10.2431C14.3026 10.3348 14.2039 10.4286 14.1076 10.5253C14.0109 10.6215 13.9172 10.7202 13.8254 10.8214C13.7336 10.9226 13.6448 11.0258 13.5585 11.131C13.4717 11.2366 13.3879 11.3437 13.3065 11.4534C13.2252 11.563 13.1468 11.6746 13.0709 11.7877C12.9955 11.9013 12.9226 12.0164 12.8522 12.1334C12.7822 12.2505 12.7148 12.369 12.6508 12.4891C12.5863 12.6096 12.5253 12.7311 12.4668 12.8547C12.4087 12.9777 12.3532 13.1022 12.3011 13.2282C12.249 13.3542 12.1999 13.4816 12.1538 13.6101C12.1081 13.7381 12.065 13.8676 12.0258 13.998C11.9861 14.1285 11.9494 14.2599 11.9167 14.3924C11.8834 14.5248 11.8537 14.6577 11.8269 14.7912C11.8001 14.9251 11.7768 15.0595 11.7569 15.1944C11.7371 15.3294 11.7202 15.4643 11.7068 15.6002C11.6935 15.7361 11.6835 15.872 11.6766 16.0079C11.6701 16.1443 11.6667 16.2808 11.6667 16.4167C11.6667 16.5531 11.6701 16.6895 11.6766 16.8259C11.6835 16.9618 11.6935 17.0977 11.7068 17.2336C11.7202 17.3695 11.7371 17.5045 11.7569 17.6394C11.7768 17.7743 11.8001 17.9087 11.8269 18.0427C11.8537 18.1761 11.8834 18.309 11.9167 18.4415C11.9494 18.5739 11.9861 18.7049 12.0258 18.8358C12.065 18.9663 12.1081 19.0957 12.1538 19.2237C12.1999 19.3522 12.249 19.4797 12.3011 19.6057C12.3532 19.7316 12.4087 19.8561 12.4668 19.9792C12.5253 20.1027 12.5863 20.2242 12.6508 20.3447C12.7148 20.4648 12.7822 20.5833 12.8522 20.7004C12.9226 20.8175 12.9955 20.9325 13.0709 21.0461C13.1468 21.1592 13.2252 21.2708 13.3065 21.3805C13.3879 21.4901 13.4717 21.5972 13.5585 21.7029C13.6448 21.808 13.7336 21.9112 13.8254 22.0124C13.9172 22.1136 14.0109 22.2123 14.1076 22.3085C14.2039 22.4048 14.3026 22.499 14.4038 22.5908C14.505 22.682 14.6081 22.7713 14.7133 22.8576C14.8189 22.9444 14.9266 23.0283 15.0357 23.1091C15.1453 23.1905 15.2569 23.2688 15.3705 23.3447C15.4836 23.4206 15.5987 23.4935 15.7158 23.5635C15.8328 23.6339 15.9514 23.7009 16.0719 23.7654C16.192 23.8294 16.314 23.8909 16.437 23.9489C16.5605 24.0074 16.685 24.0625 16.811 24.1146C16.937 24.1672 17.064 24.2158 17.1925 24.2619C17.3209 24.308 17.4504 24.3507 17.5809 24.3904C17.7113 24.4296 17.8428 24.4663 17.9752 24.4995C18.1076 24.5322 18.2406 24.5625 18.3745 24.5888C18.5079 24.6156 18.6424 24.6389 18.7773 24.6587C18.9122 24.6791 19.0476 24.6954 19.183 24.7088C19.3189 24.7222 19.4549 24.7321 19.5913 24.7391C19.7272 24.7455 19.8636 24.749 20 24.749C20.1364 24.749 20.2728 24.7455 20.4087 24.7391C20.5451 24.7321 20.6811 24.7222 20.817 24.7088C20.9524 24.6954 21.0878 24.6791 21.2227 24.6587C21.3576 24.6389 21.4921 24.6156 21.626 24.5888C21.7594 24.5625 21.8924 24.5322 22.0248 24.4995C22.1572 24.4663 22.2887 24.4296 22.4191 24.3904C22.5496 24.3507 22.6791 24.308 22.8075 24.2619C22.936 24.2158 23.063 24.1672 23.189 24.1146C23.315 24.0625 23.4395 24.0074 23.563 23.9489C23.6865 23.8909 23.808 23.8294 23.9286 23.7654C24.0486 23.7009 24.1672 23.6339 24.2842 23.5635C24.4013 23.4935 24.5164 23.4206 24.63 23.3447C24.7431 23.2688 24.8547 23.1905 24.9643 23.1091C25.0739 23.0283 25.1811 22.9444 25.2867 22.8576C25.3919 22.7713 25.4955 22.682 25.5962 22.5908C25.6974 22.499 25.7961 22.4048 25.8929 22.3085C25.9891 22.2123 26.0828 22.1136 26.1746 22.0124C26.2664 21.9112 26.3552 21.808 26.442 21.7029C26.5283 21.5972 26.6121 21.4901 26.6935 21.3805C26.7748 21.2708 26.8532 21.1592 26.9291 21.0461C27.005 20.9325 27.0779 20.8175 27.1478 20.7004C27.2178 20.5833 27.2852 20.4648 27.3492 20.3447C27.4137 20.2242 27.4752 20.1027 27.5332 19.9792C27.5918 19.8561 27.6468 19.7316 27.6989 19.6057C27.751 19.4797 27.8001 19.3522 27.8462 19.2237C27.8924 19.0957 27.935 18.9663 27.9747 18.8358C28.0144 18.7049 28.0506 18.5739 28.0838 18.4415C28.1166 18.309 28.1468 18.1761 28.1731 18.0427C28.1999 17.9087 28.2232 17.7743 28.2431 17.6394C28.2634 17.5045 28.2798 17.3695 28.2932 17.2336C28.3065 17.0977 28.3165 16.9618 28.3234 16.8259C28.3299 16.6895 28.3333 16.5531 28.3333 16.4167C28.3333 16.2808 28.3299 16.1443 28.3234 16.0079C28.3165 15.872 28.3065 15.7361 28.2932 15.6002C28.2798 15.4643 28.2634 15.3294 28.2431 15.1944C28.2232 15.0595 28.1999 14.9251 28.1731 14.7912C28.1468 14.6577 28.1166 14.5248 28.0838 14.3924C28.0506 14.2599 28.0144 14.1285 27.9747 13.998C27.935 13.8676 27.8924 13.7381 27.8462 13.6101C27.8001 13.4816 27.7515 13.3542 27.6989 13.2282C27.6468 13.1022 27.5918 12.9777 27.5332 12.8547C27.4752 12.7311 27.4137 12.6096 27.3492 12.4891C27.2852 12.369 27.2178 12.2505 27.1478 12.1334C27.0779 12.0164 27.005 11.9013 26.9291 11.7877C26.8532 11.6746 26.7748 11.563 26.6935 11.4534C26.6121 11.3437 26.5283 11.2366 26.442 11.131C26.3552 11.0258 26.2664 10.9226 26.1746 10.8214C26.0828 10.7202 25.9891 10.6215 25.8929 10.5253C25.7961 10.4286 25.6974 10.3348 25.5962 10.2431C25.4955 10.1518 25.3919 10.0625 25.2867 9.97619C25.1811 9.88938 25.0739 9.80556 24.9643 9.7247C24.8547 9.64335 24.7431 9.56498 24.63 9.48909C24.5164 9.41319 24.4013 9.34028 24.2842 9.27034C24.1672 9.1999 24.0486 9.13294 23.9286 9.06845C23.808 9.00446 23.6865 8.94296 23.563 8.88492C23.4395 8.82639 23.315 8.77133 23.189 8.71925C23.063 8.66667 22.936 8.61806 22.8075 8.57192C22.6791 8.52579 22.5496 8.48313 22.4191 8.44345C22.2887 8.40377 22.1572 8.36756 22.0248 8.33432C21.8924 8.30159 21.7594 8.27133 21.626 8.24504C21.4921 8.21825 21.3576 8.19494 21.2227 8.1751C21.0878 8.15476 20.9524 8.13839 20.817 8.125C20.6811 8.11161 20.5451 8.10169 20.4087 8.09474C20.2728 8.08829 20.1364 8.08482 20 8.08482ZM5.56994 24.6677L0.244048 29.9926L0 30.2887V31.2421L5.17262 32.9087L6.67659 37.5045L6.89435 38.0804H7.84524L14.2708 31.6558L9.19593 31.2847L6.98909 25.8685L5.56994 24.6677ZM34.4306 24.6677L33.0109 25.8685L30.8041 31.2847L25.7292 31.6558L31.9107 37.8363L32.1875 38.0804H33.1379L34.8274 32.9087L39.4241 31.4276L40 31.187V30.2366L34.4306 24.6677Z" fill="#6557E3"/>
</svg>
