<svg width="37" height="25" viewBox="0 0 37 25" fill="none" xmlns="http://www.w3.org/2000/svg">
<g clip-path="url(#clip0_830_322)">
<path d="M0 0H37V25.0003H0V0Z" fill="white"/>
<path d="M20.8125 -0.000244141H16.1875V10.156H0V14.8435H16.1875V24.9997H20.8125V14.8435H37V10.156H20.8125V-0.000244141Z" fill="#D80027"/>
<path d="M28.4571 16.8475L37 21.6578V16.8475H28.4571ZM22.5217 16.8475L37 24.9997V22.6945L26.6159 16.8475H22.5217ZM33.1435 24.9997L22.5217 19.0184V24.9997H33.1435Z" fill="#0052B4"/>
<path d="M22.5217 16.8475L37 24.9997V22.6945L26.6159 16.8475H22.5217Z" fill="white"/>
<path d="M22.5217 16.8475L37 24.9997V22.6945L26.6159 16.8475H22.5217Z" fill="#D80027"/>
<path d="M6.52855 16.8474L0 20.5234V16.8474H6.52855ZM14.4783 17.8841V24.9996H1.84212L14.4783 17.8841Z" fill="#0052B4"/>
<path d="M10.3841 16.8475L0 22.6945V24.9997L14.4783 16.8475H10.3841Z" fill="#D80027"/>
<path d="M8.54288 8.15191L0 3.34165V8.15191H8.54288ZM14.4783 8.15191L0 -0.000244141V2.30498L10.3841 8.15191H14.4783ZM3.85653 -0.000244141L14.4783 5.98101V-0.000244141H3.85653Z" fill="#0052B4"/>
<path d="M14.4783 8.15191L0 -0.000244141V2.30498L10.3841 8.15191H14.4783Z" fill="white"/>
<path d="M14.4783 8.15191L0 -0.000244141V2.30498L10.3841 8.15191H14.4783Z" fill="#D80027"/>
<path d="M30.4715 8.15211L37 4.47608V8.15211H30.4715ZM22.5217 7.11544V-0.00012207H35.1579L22.5217 7.11544Z" fill="#0052B4"/>
<path d="M26.6159 8.15191L37 2.30498V-0.000244141L22.5217 8.15191H26.6159Z" fill="#D80027"/>
</g>
<defs>
<clipPath id="clip0_830_322">
<rect width="37" height="25" rx="3" fill="white"/>
</clipPath>
</defs>
</svg>
