<svg width="19" height="15" viewBox="0 0 19 15" fill="none" xmlns="http://www.w3.org/2000/svg">
<path d="M13.3334 14.1667H17.5V12.5C17.5 11.435 16.8252 10.487 15.819 10.1381C14.8128 9.78927 13.696 10.1161 13.0367 10.9525M13.3334 14.1667H5.00004M5.00004 14.1667V12.5C5.00004 11.9533 5.10504 11.4308 5.29671 10.9525C5.92986 9.37023 7.46245 8.33276 9.16671 8.33276C10.871 8.33276 12.4036 9.37023 13.0367 10.9525C13.2284 11.4308 13.3334 11.9533 13.3334 12.5V14.1667M5.00004 14.1667H0.833374V12.5C0.833452 11.435 1.5082 10.487 2.51442 10.1381C3.52064 9.78927 4.6374 10.1161 5.29671 10.9525M11.6667 3.33334C11.6667 4.71313 10.5465 5.83334 9.16671 5.83334C7.78692 5.83334 6.66671 4.71313 6.66671 3.33334C6.66671 1.95356 7.78692 0.833344 9.16671 0.833344C10.5465 0.833344 11.6667 1.95356 11.6667 3.33334ZM17.5 5.50003C17.5 6.41989 16.5872 7.00003 15.6674 7.00003C14.7475 7.00003 14.1674 6.41989 14.1674 5.50003C14.1674 4.58017 14.7475 4.00003 15.6674 4.00003C16.5872 4.00003 17.5 4.58017 17.5 5.50003ZM5.00004 5.83334C5.00004 6.7532 4.25323 7.50001 3.33337 7.50001C2.41352 7.50001 1.66671 6.7532 1.66671 5.83334C1.66671 4.91349 2.41352 4.16668 3.33337 4.16668C4.25323 4.16668 5.00004 4.91349 5.00004 5.83334Z" stroke="#A855F7" stroke-width="1.66667" stroke-linecap="round" stroke-linejoin="round"/>
</svg>
