<svg width="39" height="26" viewBox="0 0 39 26" fill="none" xmlns="http://www.w3.org/2000/svg">
<g clip-path="url(#clip0_830_311)">
<path d="M1.31519 0H37.6848V26H1.31519V0Z" fill="#181A93"/>
<path d="M0 0H39V8.66667H0V0Z" fill="#FFA44A"/>
<path d="M0 17.3334H39V26H0V17.3334Z" fill="#1A9F0B"/>
<path d="M0 8.66663H39V17.3333H0V8.66663Z" fill="white"/>
<path d="M19.4999 15.6C20.9358 15.6 22.0999 14.436 22.0999 13C22.0999 11.5641 20.9358 10.4 19.4999 10.4C18.064 10.4 16.8999 11.5641 16.8999 13C16.8999 14.436 18.064 15.6 19.4999 15.6Z" fill="white"/>
<path d="M19.5001 16.4667C17.5919 16.4667 16.0334 14.9082 16.0334 13C16.0334 11.0918 17.5919 9.53333 19.5001 9.53333C21.4083 9.53333 22.9668 11.0918 22.9668 13C22.9668 14.9082 21.4083 16.4667 19.5001 16.4667ZM19.5001 15.6C20.8837 15.6 22.1001 14.3836 22.1001 13C22.1001 11.6164 20.8913 10.4 19.5001 10.4C18.1089 10.4 16.9001 11.6164 16.9001 13C16.9001 14.3836 18.1165 15.6 19.5001 15.6Z" fill="#181A93"/>
<path d="M19.4999 14.7334C20.4572 14.7334 21.2333 13.9574 21.2333 13.0001C21.2333 12.0428 20.4572 11.2667 19.4999 11.2667C18.5426 11.2667 17.7666 12.0428 17.7666 13.0001C17.7666 13.9574 18.5426 14.7334 19.4999 14.7334Z" fill="#181A93"/>
</g>
<defs>
<clipPath id="clip0_830_311">
<rect width="39" height="26" rx="3" fill="white"/>
</clipPath>
</defs>
</svg>
