<svg width="37" height="33" viewBox="0 0 37 33" fill="none" xmlns="http://www.w3.org/2000/svg">
<path fill-rule="evenodd" clip-rule="evenodd" d="M21.4849 29.2642H5.53554L6.15127 23.615L4.87347 26.8839C4.62188 27.5258 3.85387 28.1357 3.17194 28.2394L2.76145 28.3042C2.07289 28.408 1.15923 28.0644 0.722262 27.5388L0.464053 27.2211C0.0270841 26.6955 -0.131814 25.7489 0.119774 25.1066L4.41664 14.1521C4.91981 12.868 6.47569 11.8302 7.86604 11.8302H19.1478C20.5514 11.8302 22.1006 12.8809 22.6038 14.1586L24.3252 18.5496L27.7283 14.2753C28.1652 13.7307 29.0723 13.3672 29.7741 13.4584L30.8135 13.6075L35.885 7.87396C36.1168 7.61462 36.5206 7.59517 36.7788 7.81561C37.0437 8.03605 37.0768 8.43154 36.845 8.69131L31.7404 14.4568L32.0516 15.2029C32.3164 15.8383 32.1774 16.7918 31.7471 17.3303L25.6295 24.951C24.1597 26.7798 22.1801 26.5334 21.2201 24.4064L20.8626 23.615L21.4849 29.2642ZM21.6173 30.5095H24.3054C24.6629 30.5095 24.9476 30.7753 24.9476 31.1254V32.3836C24.9476 32.7208 24.6562 33 24.312 33H2.70186C2.35097 33 2.06627 32.7337 2.06627 32.3836V31.1254C2.06627 30.7883 2.35097 30.5095 2.70849 30.5095H21.6173ZM13.5069 9.9625C10.6997 9.9625 8.42219 7.73132 8.42219 4.98147C8.42219 2.23118 10.6997 0 13.5069 0C16.3141 0 18.5917 2.23118 18.5917 4.98147C18.5917 7.73132 16.3141 9.9625 13.5069 9.9625Z" fill="#6557E3"/>
</svg>
