<svg width="44" height="33" viewBox="0 0 44 33" fill="none" xmlns="http://www.w3.org/2000/svg">
<mask id="mask0_830_171" style="mask-type:luminance" maskUnits="userSpaceOnUse" x="0" y="30" width="43" height="3">
<path d="M0 30.6439H42.1222V32.9513H0V30.6439Z" fill="white"/>
</mask>
<g mask="url(#mask0_830_171)">
<path d="M24.6972 30.872C24.6972 31.2594 24.3827 31.5739 23.9944 31.5739H18.1205C17.7326 31.5739 17.4181 31.2594 17.4181 30.872C17.4181 30.7557 17.3237 30.6617 17.2075 30.6617H0V30.7827C0 31.8446 0.86151 32.9502 1.92424 32.9502H40.1636C41.2268 32.9502 42.0883 31.8446 42.0883 30.7827V30.6617H24.9079C24.7912 30.6617 24.6972 30.7557 24.6972 30.872Z" fill="#6557E3"/>
</g>
<path d="M24.4807 20.5859C23.5497 21.3629 22.3514 21.831 21.0437 21.831C19.736 21.831 18.5377 21.3629 17.6071 20.5859C14.9775 21.8615 13.1648 24.555 13.1648 27.6715H28.9225C28.9225 24.555 27.1099 21.8615 24.4807 20.5859Z" fill="#6557E3"/>
<path d="M25.402 16.6503C25.402 19.0551 23.4507 21.0047 21.0438 21.0047C18.6369 21.0047 16.686 19.0551 16.686 16.6503C16.686 14.2456 18.6369 12.296 21.0438 12.296C23.4507 12.296 25.402 14.2456 25.402 16.6503Z" fill="#6557E3"/>
<path d="M37.3949 16.1379V27.8472C37.3949 28.1313 37.1645 28.3612 36.8805 28.3612H5.20756C4.92311 28.3612 4.69272 28.1313 4.69272 27.8472V7.70814C4.69272 7.42455 4.92311 7.19415 5.20756 7.19415H27.5794C27.615 6.59307 27.7132 6.00228 27.8733 5.42737H4.4516C3.66259 5.42737 3.02075 6.06835 3.02075 6.8565V30.0006H39.0669V15.705C38.5242 15.9062 37.9656 16.0512 37.3949 16.1379Z" fill="#6557E3"/>
<mask id="mask1_830_171" style="mask-type:luminance" maskUnits="userSpaceOnUse" x="28" y="0" width="16" height="16">
<path d="M28.3496 0H43.813V15.4634H28.3496V0Z" fill="white"/>
</mask>
<g mask="url(#mask1_830_171)">
<path d="M39.1237 8.66788C38.5887 8.66788 38.1541 8.23326 38.1541 7.6991C38.1541 7.16452 38.5887 6.72991 39.1237 6.72991C39.6583 6.72991 40.0933 7.16452 40.0933 7.6991C40.0933 8.23326 39.6583 8.66788 39.1237 8.66788ZM36.0874 8.66788C35.5524 8.66788 35.1173 8.23326 35.1173 7.6991C35.1173 7.16452 35.5524 6.72991 36.0874 6.72991C36.622 6.72991 37.057 7.16452 37.057 7.6991C37.057 8.23326 36.622 8.66788 36.0874 8.66788ZM33.0511 8.66788C32.5161 8.66788 32.0814 8.23326 32.0814 7.6991C32.0814 7.16452 32.5161 6.72991 33.0511 6.72991C33.5856 6.72991 34.0207 7.16452 34.0207 7.6991C34.0207 8.23326 33.5856 8.66788 33.0511 8.66788ZM36.0977 0C31.836 0 28.3818 3.45119 28.3818 7.70897C28.3818 9.09391 28.7474 10.3935 29.3871 11.5167L28.6564 14.242C28.6157 14.3943 28.7551 14.5337 28.9074 14.4929L31.4001 13.8254C32.701 14.8246 34.33 15.4184 36.0977 15.4184C40.3589 15.4184 43.8131 11.9668 43.8131 7.70897C43.8131 3.45119 40.3589 0 36.0977 0Z" fill="#6557E3"/>
</g>
</svg>
