<svg width="84" height="84" viewBox="0 0 84 84" fill="none" xmlns="http://www.w3.org/2000/svg">
<g filter="url(#filter0_di_830_262)">
<rect x="3.45874" y="2.76697" width="72" height="72" rx="12" fill="#1576D0" shape-rendering="crispEdges"/>
<mask id="mask0_830_262" style="mask-type:luminance" maskUnits="userSpaceOnUse" x="22" y="19" width="34" height="40">
<path d="M22.9587 19.5183H55.9587V58.0157H22.9587V19.5183Z" fill="white"/>
</mask>
<g mask="url(#mask0_830_262)">
<path d="M54.6401 24.679L40.4581 19.744C40.1348 19.6321 39.8015 19.5754 39.4598 19.5754C39.1173 19.5754 38.7848 19.6321 38.4614 19.744L24.2788 24.679C24.1827 24.7119 24.0898 24.7528 24.0002 24.8008C23.9107 24.8489 23.8257 24.9036 23.7441 24.9648C23.6631 25.0261 23.5873 25.0932 23.5169 25.167C23.4464 25.2401 23.3819 25.3184 23.3233 25.4014C23.2647 25.485 23.2133 25.5726 23.1685 25.6635C23.1237 25.755 23.0862 25.8499 23.0566 25.9467C23.0263 26.0441 23.0039 26.1436 22.9894 26.2443C22.9749 26.3451 22.9683 26.4465 22.9696 26.5479C23.0342 31.8003 24.2716 50.2278 38.1519 57.6454C38.3534 57.7528 38.5642 57.8338 38.7854 57.8897C39.0067 57.9451 39.2313 57.9727 39.4591 57.9727C39.687 57.9727 39.9115 57.9451 40.1321 57.8897C40.3534 57.8338 40.5648 57.7528 40.7656 57.6454C54.6473 50.2278 55.8847 31.8003 55.9479 26.5479C55.9492 26.4465 55.9426 26.3451 55.9282 26.2443C55.9137 26.1436 55.8913 26.0441 55.8616 25.9473C55.8314 25.8499 55.7945 25.7557 55.7497 25.6642C55.7049 25.5726 55.6536 25.485 55.5949 25.4021C55.537 25.3184 55.4725 25.2401 55.402 25.167C55.3315 25.0939 55.2558 25.0267 55.1741 24.9648C55.0932 24.9036 55.0082 24.8489 54.9186 24.8008C54.8291 24.7528 54.7362 24.7119 54.6401 24.679ZM48.1964 35.2977L39.7212 43.7914C39.6284 43.8809 39.5269 43.9606 39.4189 44.0304C39.3103 44.1009 39.1964 44.1595 39.0765 44.2082C38.9567 44.2563 38.8335 44.2925 38.7071 44.3169C38.58 44.3412 38.4522 44.3538 38.3232 44.3538C38.1941 44.3538 38.0663 44.3412 37.9392 44.3169C37.8128 44.2925 37.6897 44.2563 37.5698 44.2082C37.45 44.1595 37.336 44.1009 37.2274 44.0304C37.1187 43.9606 37.018 43.8809 36.9251 43.7914L32.0803 38.9367C31.9928 38.8472 31.9144 38.7497 31.8452 38.645C31.7768 38.5403 31.7182 38.429 31.6714 38.3131C31.624 38.1965 31.5884 38.0767 31.5647 37.9536C31.541 37.8304 31.5292 37.7053 31.5298 37.5802C31.5305 37.4544 31.543 37.3299 31.568 37.2068C31.593 37.0836 31.6292 36.9644 31.678 36.8485C31.7261 36.7326 31.7847 36.622 31.8545 36.518C31.9243 36.4133 32.004 36.3171 32.0929 36.2282C32.1811 36.1393 32.2779 36.0603 32.3819 35.9905C32.486 35.9207 32.596 35.8614 32.7119 35.8133C32.8278 35.7646 32.947 35.7284 33.0701 35.7034C33.1926 35.679 33.317 35.6665 33.4422 35.6658C33.5673 35.6652 33.6917 35.677 33.8149 35.7014C33.938 35.7251 34.0572 35.7607 34.1738 35.8081C34.2897 35.8555 34.3997 35.9141 34.5044 35.9832C34.6091 36.0524 34.7065 36.1308 34.7954 36.219L38.3238 39.7526L45.484 32.578C45.5729 32.4891 45.6697 32.4094 45.7744 32.3396C45.8797 32.2692 45.9897 32.2099 46.1063 32.1618C46.2228 32.1138 46.3427 32.0775 46.4665 32.0532C46.5896 32.0281 46.7147 32.0163 46.8405 32.0163C46.9663 32.0163 47.0908 32.0288 47.2146 32.0532C47.3377 32.0782 47.4582 32.1144 47.5741 32.1625C47.6907 32.2112 47.8013 32.2705 47.906 32.3403C48.0107 32.4107 48.1075 32.4898 48.1964 32.5793C48.2853 32.6682 48.365 32.7657 48.4348 32.8704C48.5046 32.9751 48.5639 33.0864 48.6119 33.203C48.6607 33.3195 48.6969 33.4394 48.7213 33.5632C48.7463 33.687 48.7588 33.8121 48.7588 33.9379C48.7588 34.0643 48.7463 34.1894 48.7219 34.3132C48.6976 34.437 48.6613 34.5569 48.6133 34.6734C48.5652 34.79 48.5059 34.9013 48.4361 35.006C48.3663 35.1107 48.2873 35.2082 48.1984 35.2977H48.1964Z" fill="white"/>
</g>
</g>
<defs>
<filter id="filter0_di_830_262" x="5.81741e-05" y="2.21729e-05" width="83.0678" height="83.0678" filterUnits="userSpaceOnUse" color-interpolation-filters="sRGB">
<feFlood flood-opacity="0" result="BackgroundImageFix"/>
<feColorMatrix in="SourceAlpha" type="matrix" values="0 0 0 0 0 0 0 0 0 0 0 0 0 0 0 0 0 0 127 0" result="hardAlpha"/>
<feOffset dx="2.07521" dy="2.76695"/>
<feGaussianBlur stdDeviation="2.76695"/>
<feComposite in2="hardAlpha" operator="out"/>
<feColorMatrix type="matrix" values="0 0 0 0 0.0823529 0 0 0 0 0.462745 0 0 0 0 0.815686 0 0 0 0.35 0"/>
<feBlend mode="normal" in2="BackgroundImageFix" result="effect1_dropShadow_830_262"/>
<feBlend mode="normal" in="SourceGraphic" in2="effect1_dropShadow_830_262" result="shape"/>
<feColorMatrix in="SourceAlpha" type="matrix" values="0 0 0 0 0 0 0 0 0 0 0 0 0 0 0 0 0 0 127 0" result="hardAlpha"/>
<feOffset dx="-0.691736" dy="-0.691736"/>
<feGaussianBlur stdDeviation="2.76695"/>
<feComposite in2="hardAlpha" operator="arithmetic" k2="-1" k3="1"/>
<feColorMatrix type="matrix" values="0 0 0 0 0.216667 0 0 0 0 0.216667 0 0 0 0 0.216667 0 0 0 0.51 0"/>
<feBlend mode="normal" in2="shape" result="effect2_innerShadow_830_262"/>
</filter>
</defs>
</svg>
