<svg width="20" height="20" viewBox="0 0 20 20" fill="none" xmlns="http://www.w3.org/2000/svg">
<path d="M9.98846 15.9833L5.14679 18.9C4.93291 19.0361 4.70929 19.0944 4.47596 19.075C4.24263 19.0556 4.03846 18.9778 3.86346 18.8417C3.68846 18.7056 3.55235 18.5354 3.45513 18.3312C3.35791 18.1271 3.33846 17.8986 3.39679 17.6458L4.68013 12.1333L0.392628 8.42917C0.198184 8.25417 0.076656 8.05486 0.0280449 7.83125C-0.0205662 7.60764 -0.00598291 7.38889 0.0717949 7.175C0.149573 6.96111 0.266239 6.78611 0.421795 6.65C0.57735 6.51389 0.791239 6.42639 1.06346 6.3875L6.72179 5.89167L8.9093 0.7C9.00652 0.466667 9.15721 0.291667 9.36138 0.175C9.56554 0.0583333 9.77457 0 9.98846 0C10.2023 0 10.4114 0.0583333 10.6155 0.175C10.8197 0.291667 10.9704 0.466667 11.0676 0.7L13.2551 5.89167L18.9135 6.3875C19.1857 6.42639 19.3996 6.51389 19.5551 6.65C19.7107 6.78611 19.8273 6.96111 19.9051 7.175C19.9829 7.38889 19.9975 7.60764 19.9489 7.83125C19.9003 8.05486 19.7787 8.25417 19.5843 8.42917L15.2968 12.1333L16.5801 17.6458C16.6385 17.8986 16.619 18.1271 16.5218 18.3312C16.4246 18.5354 16.2885 18.7056 16.1135 18.8417C15.9385 18.9778 15.7343 19.0556 15.501 19.075C15.2676 19.0944 15.044 19.0361 14.8301 18.9L9.98846 15.9833Z" fill="#FFC224"/>
</svg>
