<svg width="84" height="84" viewBox="0 0 84 84" fill="none" xmlns="http://www.w3.org/2000/svg">
<g filter="url(#filter0_di_830_218)">
<rect x="3.45874" y="2.76697" width="72" height="72" rx="12" fill="#7140EF" shape-rendering="crispEdges"/>
<mask id="mask0_830_218" style="mask-type:luminance" maskUnits="userSpaceOnUse" x="33" y="26" width="13" height="13">
<path d="M33.3474 26.5447H45.525V38.8664H33.3474V26.5447Z" fill="white"/>
</mask>
<g mask="url(#mask0_830_218)">
<path d="M45.457 32.6544C45.457 36.033 42.7724 38.7673 39.4589 38.7673C36.1458 38.7673 33.4578 36.033 33.4578 32.6544C33.4578 29.2795 36.1458 26.5452 39.4589 26.5452C42.7724 26.5452 45.457 29.2795 45.457 32.6544Z" fill="white"/>
</g>
<mask id="mask1_830_218" style="mask-type:luminance" maskUnits="userSpaceOnUse" x="29" y="40" width="21" height="11">
<path d="M29.4592 40.7015H49.4592V50.9883H29.4592V40.7015Z" fill="white"/>
</mask>
<g mask="url(#mask1_830_218)">
<path d="M29.4592 50.9899C29.4592 45.2855 33.8593 40.8041 39.4592 40.8041C45.0595 40.8041 49.4592 45.2855 49.4592 50.9899H29.4592Z" fill="white"/>
</g>
<path d="M55.457 36.7314C55.457 38.9811 53.6709 40.8044 51.4586 40.8044C49.2497 40.8044 47.4597 38.9811 47.4597 36.7314C47.4597 34.4817 49.2497 32.6548 51.4586 32.6548C53.6709 32.6548 55.457 34.4817 55.457 36.7314Z" fill="white"/>
<mask id="mask2_830_218" style="mask-type:luminance" maskUnits="userSpaceOnUse" x="51" y="42" width="9" height="9">
<path d="M51.05 42.7683H59.4591V50.9892H51.05V42.7683Z" fill="white"/>
</mask>
<g mask="url(#mask2_830_218)">
<path d="M59.4593 50.9898H53.4612C53.4612 47.9367 52.4597 45.0827 51.0608 42.8438C54.8606 42.4349 59.4593 45.8968 59.4593 50.9898Z" fill="white"/>
</g>
<path d="M31.4583 36.7314C31.4583 38.9811 29.6687 40.8044 27.4599 40.8044C25.251 40.8044 23.4575 38.9811 23.4575 36.7314C23.4575 34.4817 25.251 32.6548 27.4599 32.6548C29.6687 32.6548 31.4583 34.4817 31.4583 36.7314Z" fill="white"/>
<mask id="mask3_830_218" style="mask-type:luminance" maskUnits="userSpaceOnUse" x="19" y="42" width="10" height="9">
<path d="M19.4585 42.7683H28.1605V50.9892H19.4585V42.7683Z" fill="white"/>
</mask>
<g mask="url(#mask3_830_218)">
<path d="M19.4585 50.9898H25.4601C25.4601 47.9367 26.4577 45.0827 28.0592 42.8438C24.0572 42.4349 19.4585 45.8968 19.4585 50.9898Z" fill="white"/>
</g>
</g>
<defs>
<filter id="filter0_di_830_218" x="5.81741e-05" y="2.21729e-05" width="83.0678" height="83.0678" filterUnits="userSpaceOnUse" color-interpolation-filters="sRGB">
<feFlood flood-opacity="0" result="BackgroundImageFix"/>
<feColorMatrix in="SourceAlpha" type="matrix" values="0 0 0 0 0 0 0 0 0 0 0 0 0 0 0 0 0 0 127 0" result="hardAlpha"/>
<feOffset dx="2.07521" dy="2.76695"/>
<feGaussianBlur stdDeviation="2.76695"/>
<feComposite in2="hardAlpha" operator="out"/>
<feColorMatrix type="matrix" values="0 0 0 0 0.443137 0 0 0 0 0.25098 0 0 0 0 0.937255 0 0 0 0.35 0"/>
<feBlend mode="normal" in2="BackgroundImageFix" result="effect1_dropShadow_830_218"/>
<feBlend mode="normal" in="SourceGraphic" in2="effect1_dropShadow_830_218" result="shape"/>
<feColorMatrix in="SourceAlpha" type="matrix" values="0 0 0 0 0 0 0 0 0 0 0 0 0 0 0 0 0 0 127 0" result="hardAlpha"/>
<feOffset dx="-0.691736" dy="-0.691736"/>
<feGaussianBlur stdDeviation="2.76695"/>
<feComposite in2="hardAlpha" operator="arithmetic" k2="-1" k3="1"/>
<feColorMatrix type="matrix" values="0 0 0 0 0.216667 0 0 0 0 0.216667 0 0 0 0 0.216667 0 0 0 0.51 0"/>
<feBlend mode="normal" in2="shape" result="effect2_innerShadow_830_218"/>
</filter>
</defs>
</svg>
