<svg width="31" height="31" viewBox="0 0 31 31" fill="none" xmlns="http://www.w3.org/2000/svg">
<g clip-path="url(#clip0_777_715)">
<path d="M15.5 31C24.0604 31 31 24.0604 31 15.5C31 6.93959 24.0604 0 15.5 0C6.93959 0 0 6.93959 0 15.5C0 24.0604 6.93959 31 15.5 31Z" fill="#F0F0F0"/>
<path d="M3.20411 6.06323C1.98658 7.64732 1.0685 9.47311 0.533936 11.4566H8.59745L3.20411 6.06323Z" fill="#0052B4"/>
<path d="M30.466 11.4565C29.9314 9.47311 29.0133 7.64732 27.7958 6.06323L22.4026 11.4565H30.466Z" fill="#0052B4"/>
<path d="M0.533936 19.5435C1.06856 21.5269 1.98664 23.3526 3.20411 24.9367L8.59727 19.5435H0.533936Z" fill="#0052B4"/>
<path d="M24.9367 3.20417C23.3526 1.98664 21.5269 1.06856 19.5435 0.533936V8.59739L24.9367 3.20417Z" fill="#0052B4"/>
<path d="M6.06323 27.7957C7.64732 29.0133 9.47311 29.9313 11.4565 30.466V22.4026L6.06323 27.7957Z" fill="#0052B4"/>
<path d="M11.4564 0.533936C9.47305 1.06856 7.64726 1.98664 6.06323 3.20411L11.4564 8.59733V0.533936Z" fill="#0052B4"/>
<path d="M19.5435 30.466C21.5269 29.9313 23.3526 29.0133 24.9367 27.7958L19.5435 22.4026V30.466Z" fill="#0052B4"/>
<path d="M22.4026 19.5435L27.7958 24.9367C29.0133 23.3527 29.9314 21.5269 30.466 19.5435H22.4026Z" fill="#0052B4"/>
<path d="M30.8688 13.4783H17.5218H17.5218V0.131205C16.8599 0.0450469 16.1852 0 15.5 0C14.8147 0 14.1401 0.0450469 13.4783 0.131205V13.4782V13.4782H0.131205C0.0450469 14.1401 0 14.8148 0 15.5C0 16.1853 0.0450469 16.8599 0.131205 17.5217H13.4782H13.4782V30.8688C14.1401 30.955 14.8147 31 15.5 31C16.1852 31 16.8599 30.955 17.5217 30.8688V17.5218V17.5218H30.8688C30.955 16.8599 31 16.1853 31 15.5C31 14.8148 30.955 14.1401 30.8688 13.4783V13.4783Z" fill="#D80027"/>
<path d="M19.5435 19.5435L26.4601 26.4601C26.7782 26.1422 27.0817 25.8097 27.3712 25.4651L21.4496 19.5435H19.5435V19.5435Z" fill="#D80027"/>
<path d="M11.4565 19.5435H11.4564L4.53979 26.46C4.85779 26.7781 5.19025 27.0816 5.53488 27.3711L11.4565 21.4494V19.5435Z" fill="#D80027"/>
<path d="M11.4564 11.4566V11.4565L4.53977 4.53979C4.22166 4.85779 3.9182 5.19025 3.62866 5.53488L9.55033 11.4565H11.4564V11.4566Z" fill="#D80027"/>
<path d="M19.5435 11.4567L26.4601 4.53996C26.1422 4.22184 25.8097 3.91838 25.4651 3.62891L19.5435 9.55057V11.4567Z" fill="#D80027"/>
</g>
<defs>
<clipPath id="clip0_777_715">
<rect width="31" height="31" fill="white"/>
</clipPath>
</defs>
</svg>
