<svg width="37" height="25" viewBox="0 0 37 25" fill="none" xmlns="http://www.w3.org/2000/svg">
<g clip-path="url(#clip0_830_342)">
<path d="M0 0H37V25H0V0Z" fill="white"/>
<path d="M0 0H37V1.92251H0V0ZM0 3.84503H37V5.76754H0V3.84503ZM0 7.69006H37V9.61257H0V7.69006ZM0 11.5351H37V13.4576H0V11.5351ZM0 15.3874H37V17.3099H0V15.3874ZM0 19.2325H37V21.155H0V19.2325ZM0 23.0775H37V25H0V23.0775Z" fill="#D80027"/>
<path d="M0 0H18.5V13.4576H0V0Z" fill="#2E52B2"/>
<path d="M3.44754 10.1535L3.15904 9.21782L2.8417 10.1535H1.88965L2.66138 10.7164L2.37288 11.652L3.15904 11.0745L3.92357 11.652L3.62785 10.7164L4.41401 10.1535H3.44754ZM7.50817 10.1535L7.21246 9.21782L6.90953 10.1535H5.95748L6.72922 10.7164L6.44072 11.652L7.21246 11.0745L7.9914 11.652L7.7029 10.7164L8.47464 10.1535H7.50817ZM11.5832 10.1535L11.2731 9.21782L10.9846 10.1535H10.0109L10.8043 10.7164L10.5013 11.652L11.2731 11.0745L12.0665 11.652L11.7635 10.7164L12.5353 10.1535H11.5832ZM15.6366 10.1535L15.3481 9.21782L15.0452 10.1535H14.0859L14.8649 10.7164L14.5764 11.652L15.3481 11.0745L16.1271 11.652L15.8169 10.7164L16.6103 10.1535H15.6366ZM7.21246 5.50437L6.90953 6.44004H5.95748L6.72922 7.01753L6.44072 7.93858L7.21246 7.36841L7.9914 7.93858L7.7029 7.01753L8.47464 6.44004H7.50817L7.21246 5.50437ZM3.15904 5.50437L2.8417 6.44004H1.88965L2.66138 7.01753L2.37288 7.93858L3.15904 7.36841L3.92357 7.93858L3.62785 7.01753L4.41401 6.44004H3.44754L3.15904 5.50437ZM11.2731 5.50437L10.9846 6.44004H10.0109L10.8043 7.01753L10.5013 7.93858L11.2731 7.36841L12.0665 7.93858L11.7635 7.01753L12.5353 6.44004H11.5832L11.2731 5.50437ZM15.3481 5.50437L15.0452 6.44004H14.0859L14.8649 7.01753L14.5764 7.93858L15.3481 7.36841L16.1271 7.93858L15.8169 7.01753L16.6103 6.44004H15.6366L15.3481 5.50437ZM3.15904 1.80554L2.8417 2.72659H1.88965L2.66138 3.30408L2.37288 4.23244L3.15904 3.65496L3.92357 4.23244L3.62785 3.30408L4.41401 2.72659H3.44754L3.15904 1.80554ZM7.21246 1.80554L6.90953 2.72659H5.95748L6.72922 3.30408L6.44072 4.23244L7.21246 3.65496L7.9914 4.23244L7.7029 3.30408L8.47464 2.72659H7.50817L7.21246 1.80554ZM11.2731 1.80554L10.9846 2.72659H10.0109L10.8043 3.30408L10.5013 4.23244L11.2731 3.65496L12.0665 4.23244L11.7635 3.30408L12.5353 2.72659H11.5832L11.2731 1.80554ZM15.3481 1.80554L15.0452 2.72659H14.0859L14.8649 3.30408L14.5764 4.23244L15.3481 3.65496L16.1271 4.23244L15.8169 3.30408L16.6103 2.72659H15.6366L15.3481 1.80554Z" fill="white"/>
</g>
<defs>
<clipPath id="clip0_830_342">
<rect width="37" height="25" rx="3" fill="white"/>
</clipPath>
</defs>
</svg>
